<svg height="212.602" viewBox="0 0 413.136 212.602" width="413.136" xmlns="http://www.w3.org/2000/svg"><g transform="translate(-193.432 -193.699)"><g><path d="m448.6 302.957-5.613 13.76-30.958-72.1h-16.09l41.55 94.91 13-32.268z" fill="#00d975"/><g fill="#012f2d"><path d="m279.585 288.609c-.2 25.663-16.5 49.9-45.011 49.9-6.518 0-16.5-2.037-23.219-6.721a54.685 54.685 0 0 1 -8.554-7.129l-9.369 14.868v-145.827h16.09v107.74c0 23.423 17.924 38.494 36.05 33.81 15.072-3.87 19.96-25.459 18.737-48.474-1.221-23.421-14.256-38.7-31.772-38.289-8.757.407-17.312 7.332-21.589 12.424 2.647-5.7 11.813-19.349 28.31-19.96 21.386-.612 40.531 14.049 40.327 47.658z"/><path d="m381.4 309.588 1.222-2.241c-3.666 16.905-19.349 31.569-40.938 31.162-25.255-.408-45.419-19.552-46.029-48.27-.407-21.792 10.794-35.643 22.81-42.771 9.166-5.7 19.553-7.129 27.9-6.721 20.571 1.222 36.051 17.312 35.439 42.363h-70.464c0 25.052 13.85 42.567 36.05 43.586 13.849.611 26.681-3.87 34.01-17.108zm-70.06-28.718h54.991c2.24-8.35 3.259-25.051-6.314-32.994-8.757-7.537-23.829-7.537-34.42 0-10.797 7.739-13.849 23.014-14.257 32.994z"/><path d="m564.406 243.6c-8.962.2-15.071 4.889-16.09 12.424-1.019 5.907 0 17.312 24.643 23.83 26.274 7.129 33.606 16.089 33.606 28.921.2 14.664-9.776 29.736-33.809 29.736-20.164 0-30.957-7.129-37.068-10.387l-.407-27.292c2.647 5.906 9.776 19.144 20.774 26.273 15.275 9.98 38.29 11.406 40.327-3.666 2.037-10.183-4.073-20.164-28.513-26.884-23.627-6.925-30.145-16.294-30.145-28.106.2-14.054 11.406-27.5 34.625-27.7 17.311 0 26.477 7.536 28.106 8.757v20.367c-7.739-15.684-21.996-26.273-36.049-26.273z"/><path d="m522.41 244.617-29.327 72.1-30.959-72.1h-16.09l39.92 91.244-2.064 5.308c-2.647 6.924-6.72 12.016-13.238 14.46a22.764 22.764 0 0 1 -12.832.408l-.792 1.882-5.471 13.581c12.768-.513 27.1-9.292 35.592-30.538l1.249-3.27 37.271-93.077z"/></g></g><g fill="#00d975"><path d="m193.5 375.7v-2.638h23.543v2.638h-10.264v30.089h-2.92v-30.089z"/><path d="m223.966 405.784h-2.779v-34h2.779v11.819a18.085 18.085 0 0 1 7.627-1.837q4.708 0 6.287 2.5t1.578 9.134v12.385h-2.826v-12.244q0-5.413-1.011-7.322t-4.4-1.906a16.164 16.164 0 0 0 -3.461.4 16.673 16.673 0 0 0 -2.8.825l-.988.377z"/><path d="m261.871 403.429 1.412-.14.094 2.307a75.439 75.439 0 0 1 -8.994.659q-5.086-.048-7.11-3.014t-2.025-9.135q0-12.336 9.7-12.337 4.662 0 6.969 2.66t2.308 8.5l-.094 2.261h-16.011q0 4.33 1.484 6.427t5.085 2.1q3.603-.005 7.182-.288zm-13.751-10.594h13.28q0-4.663-1.53-6.64t-4.9-1.977a6.339 6.339 0 0 0 -5.109 2.047q-1.741 2.049-1.741 6.57z"/><path d="m278.4 382.24h2.872l5.179 21.1h.659l6.122-20.625h2.968l6.123 20.625h.705l5.179-21.1h2.874l-5.886 23.544h-4.9l-5.558-19.4-5.6 19.4h-4.849z"/><path d="m316.161 376.354v-3.531h2.78v3.531zm0 29.43v-23.544h2.78v23.544z"/><path d="m333.114 384.359q-5.558 0-5.557 4a2.793 2.793 0 0 0 1.225 2.59 18.763 18.763 0 0 0 5.532 1.482 15.312 15.312 0 0 1 6.075 2q1.766 1.27 1.766 4.872a6.073 6.073 0 0 1 -2.307 5.274q-2.309 1.671-6.781 1.672a44.089 44.089 0 0 1 -6.688-.659l-1.364-.188.188-2.5a58.157 58.157 0 0 0 8.1.8 8.286 8.286 0 0 0 4.4-.988 3.638 3.638 0 0 0 1.578-3.344q0-2.355-1.3-3.131a18.2 18.2 0 0 0 -5.555-1.436 15 15 0 0 1 -6.005-1.884q-1.743-1.225-1.742-4.615a5.463 5.463 0 0 1 2.4-4.945 10.71 10.71 0 0 1 5.934-1.552 51.147 51.147 0 0 1 7.062.611l1.272.188-.094 2.5a57.719 57.719 0 0 0 -8.139-.747z"/><path d="m363.439 403.429 1.412-.14.094 2.307a75.439 75.439 0 0 1 -8.994.659q-5.086-.048-7.11-3.014t-2.025-9.135q0-12.336 9.7-12.337 4.663 0 6.97 2.66t2.307 8.5l-.094 2.261h-16.01q0 4.33 1.484 6.427t5.085 2.1q3.6-.005 7.181-.288zm-13.751-10.594h13.278q0-4.663-1.53-6.64t-4.9-1.977a6.339 6.339 0 0 0 -5.109 2.047q-1.74 2.049-1.739 6.57z"/><path d="m389.053 384.359q-5.559 0-5.558 4a2.791 2.791 0 0 0 1.226 2.59 18.744 18.744 0 0 0 5.531 1.482 15.306 15.306 0 0 1 6.075 2q1.767 1.27 1.766 4.872a6.074 6.074 0 0 1 -2.307 5.274q-2.309 1.671-6.781 1.672a44.067 44.067 0 0 1 -6.687-.659l-1.365-.188.189-2.5a58.132 58.132 0 0 0 8.1.8 8.281 8.281 0 0 0 4.4-.988 3.638 3.638 0 0 0 1.578-3.344q0-2.355-1.3-3.131a18.217 18.217 0 0 0 -5.556-1.436 15 15 0 0 1 -6.005-1.884q-1.743-1.225-1.742-4.615a5.463 5.463 0 0 1 2.4-4.945 10.712 10.712 0 0 1 5.935-1.552 51.171 51.171 0 0 1 7.062.611l1.271.188-.094 2.5a57.707 57.707 0 0 0 -8.138-.747z"/><path d="m403.789 376.354v-3.531h2.78v3.531zm0 29.43v-23.544h2.78v23.544z"/><path d="m431.243 371.787v34h-2.825v-1.742a14.6 14.6 0 0 1 -7.535 2.213 10.086 10.086 0 0 1 -3.014-.4 7.236 7.236 0 0 1 -2.59-1.578q-2.682-2.4-2.683-9.394t2.261-10.054q2.259-3.06 7.626-3.06a40.949 40.949 0 0 1 5.935.613v-10.6zm-12.126 31.6a6.519 6.519 0 0 0 2.261.329 11.82 11.82 0 0 0 3.2-.517 21.358 21.358 0 0 0 2.848-.99l.99-.518v-16.862a42.323 42.323 0 0 0 -5.84-.564q-4 0-5.532 2.449t-1.53 7.581q0 6.027 1.836 7.863a5.129 5.129 0 0 0 1.767 1.225z"/><path d="m453.845 403.429 1.412-.14.094 2.307a75.439 75.439 0 0 1 -8.994.659q-5.086-.048-7.11-3.014t-2.025-9.135q0-12.336 9.7-12.337 4.662 0 6.969 2.66t2.307 8.5l-.094 2.261h-16.01q0 4.33 1.484 6.427t5.085 2.1q3.601-.005 7.182-.288zm-13.751-10.594h13.279q0-4.663-1.531-6.64t-4.9-1.977a6.343 6.343 0 0 0 -5.11 2.047q-1.739 2.049-1.738 6.57z"/><path d="m471.361 393.964q0-6.639 2.236-9.417t7.628-2.778q5.393 0 7.629 2.778t2.237 9.417q0 6.639-2.049 9.465t-7.793 2.826q-5.745 0-7.817-2.826t-2.071-9.465zm2.919-.07q0 5.581 1.3 7.723t5.65 2.143q4.354 0 5.674-2.167t1.32-7.7q0-5.532-1.484-7.581t-5.486-2.048q-4 0-5.485 2.024t-1.489 7.606z"/><path d="m500.931 384.735v21.049h-2.824v-21.049h-3.062v-2.495h3.062v-2.4q0-4.991 1.364-6.757t4.85-1.765l4.569.235v2.4q-2.781-.092-4.144-.094a3.339 3.339 0 0 0 -3.014 1.224q-.8 1.227-.8 4.8v2.354h7.11v2.495z"/><path d="m540.392 371.787v34h-2.826v-1.742a14.6 14.6 0 0 1 -7.535 2.213 10.086 10.086 0 0 1 -3.014-.4 7.233 7.233 0 0 1 -2.589-1.578q-2.684-2.4-2.684-9.394t2.261-10.054q2.259-3.06 7.627-3.06a40.95 40.95 0 0 1 5.934.613v-10.6zm-12.127 31.6a6.519 6.519 0 0 0 2.261.329 11.821 11.821 0 0 0 3.2-.517 21.356 21.356 0 0 0 2.848-.99l.99-.518v-16.862a42.324 42.324 0 0 0 -5.84-.564q-4 0-5.532 2.449t-1.53 7.581q0 6.027 1.836 7.863a5.129 5.129 0 0 0 1.767 1.225z"/><path d="m563.6 389.256v12.619q.188 1.743 3.06 2.073l-.14 2.259q-3.627 0-5.321-1.883a21.973 21.973 0 0 1 -8.853 1.931 6.163 6.163 0 0 1 -4.8-1.812 7.438 7.438 0 0 1 -1.649-5.181 6.672 6.672 0 0 1 1.673-4.991 8.653 8.653 0 0 1 5.249-2l8.005-.8v-2.213a5.219 5.219 0 0 0 -1.153-3.79 4.169 4.169 0 0 0 -3.085-1.153 69.914 69.914 0 0 0 -7.817.564l-1.46.141-.14-2.26a49.171 49.171 0 0 1 9.065-.989q3.883 0 5.626 1.837t1.74 5.648zm-14.781 9.844q0 4.758 3.908 4.757a19.3 19.3 0 0 0 3.721-.4 22.809 22.809 0 0 0 3.2-.825l1.177-.423v-8.523l-7.675.8a4.056 4.056 0 0 0 -4.332 4.614z"/><path d="m582.817 384.735h-7.865v11.631q0 4.569.659 5.98t3.108 1.414l4.332-.331.188 2.4a34.445 34.445 0 0 1 -4.754.47q-3.579 0-4.969-1.764t-1.388-6.758v-13.042h-3.485v-2.495h3.485v-7.393h2.824v7.393h7.865z"/><path d="m603.44 389.256v12.619q.188 1.743 3.06 2.073l-.14 2.259q-3.629 0-5.322-1.883a21.965 21.965 0 0 1 -8.852 1.931 6.163 6.163 0 0 1 -4.8-1.812 7.438 7.438 0 0 1 -1.648-5.181 6.672 6.672 0 0 1 1.672-4.991 8.659 8.659 0 0 1 5.25-2l8.005-.8v-2.213a5.214 5.214 0 0 0 -1.154-3.79 4.165 4.165 0 0 0 -3.084-1.153 69.883 69.883 0 0 0 -7.817.564l-1.46.141-.14-2.26a49.17 49.17 0 0 1 9.064-.989q3.885 0 5.626 1.837t1.74 5.648zm-14.785 9.844q0 4.758 3.908 4.757a19.316 19.316 0 0 0 3.721-.4 22.827 22.827 0 0 0 3.2-.825l1.178-.423v-8.523l-7.675.8a4.056 4.056 0 0 0 -4.332 4.614z"/></g></g></svg>